<svg 
 xmlns="http://www.w3.org/2000/svg"
 xmlns:xlink="http://www.w3.org/1999/xlink"
 draggable="false"
 width="121px" height="122px">
<path fill-rule="evenodd"  fill="rgb(0, 0, 0)"
 d="M14.500,0.000 C22.508,0.000 28.1000,6.492 28.1000,14.500 C28.1000,22.508 22.508,28.1000 14.500,28.1000 C6.492,28.1000 0.000,22.508 0.000,14.500 C0.000,6.492 6.492,0.000 14.500,0.000 Z"/>
<path fill-rule="evenodd"  fill="rgb(0, 0, 0)"
 d="M106.500,93.000 C114.508,93.000 120.1000,99.492 120.1000,107.500 C120.1000,115.508 114.508,121.1000 106.500,121.1000 C98.492,121.1000 92.000,115.508 92.000,107.500 C92.000,99.492 98.492,93.000 106.500,93.000 Z"/>
<path fill-rule="evenodd"  fill="rgb(0, 0, 0)"
 d="M59.500,46.000 C67.508,46.000 73.1000,52.492 73.1000,60.500 C73.1000,68.508 67.508,74.1000 59.500,74.1000 C51.492,74.1000 45.000,68.508 45.000,60.500 C45.000,52.492 51.492,46.000 59.500,46.000 Z"/>
</svg>