<svg 
 xmlns="http://www.w3.org/2000/svg"
 xmlns:xlink="http://www.w3.org/1999/xlink"
 draggable="false"
 width="121px" height="121px">
<path fill-rule="evenodd"  fill="rgb(0, 0, 0)"
 d="M60.500,45.000 C68.508,45.000 74.1000,51.492 74.1000,59.500 C74.1000,67.508 68.508,73.1000 60.500,73.1000 C52.492,73.1000 46.000,67.508 46.000,59.500 C46.000,51.492 52.492,45.000 60.500,45.000 Z"/>
<path fill-rule="evenodd"  fill="rgb(0, 0, 0)"
 d="M14.500,0.000 C22.508,0.000 28.1000,6.492 28.1000,14.500 C28.1000,22.508 22.508,28.1000 14.500,28.1000 C6.492,28.1000 0.000,22.508 0.000,14.500 C0.000,6.492 6.492,0.000 14.500,0.000 Z"/>
<path fill-rule="evenodd"  fill="rgb(0, 0, 0)"
 d="M14.500,92.000 C22.508,92.000 28.1000,98.492 28.1000,106.500 C28.1000,114.508 22.508,120.1000 14.500,120.1000 C6.492,120.1000 0.000,114.508 0.000,106.500 C0.000,98.492 6.492,92.000 14.500,92.000 Z"/>
<path fill-rule="evenodd"  fill="rgb(0, 0, 0)"
 d="M106.500,92.000 C114.508,92.000 120.1000,98.492 120.1000,106.500 C120.1000,114.508 114.508,120.1000 106.500,120.1000 C98.492,120.1000 92.000,114.508 92.000,106.500 C92.000,98.492 98.492,92.000 106.500,92.000 Z"/>
<path fill-rule="evenodd"  fill="rgb(0, 0, 0)"
 d="M106.500,0.000 C114.508,0.000 120.1000,6.492 120.1000,14.500 C120.1000,22.508 114.508,28.1000 106.500,28.1000 C98.492,28.1000 92.000,22.508 92.000,14.500 C92.000,6.492 98.492,0.000 106.500,0.000 Z"/>
</svg>