<svg 
 xmlns="http://www.w3.org/2000/svg"
 xmlns:xlink="http://www.w3.org/1999/xlink"
 draggable="false"
 width="114px" height="142px">
<path fill-rule="evenodd"  fill="rgb(0, 0, 0)"
 d="M14.500,0.000 C22.508,0.000 28.1000,6.492 28.1000,14.500 C28.1000,22.508 22.508,28.1000 14.500,28.1000 C6.492,28.1000 0.000,22.508 0.000,14.500 C0.000,6.492 6.492,0.000 14.500,0.000 Z"/>
<path fill-rule="evenodd"  fill="rgb(0, 0, 0)"
 d="M14.500,113.000 C22.508,113.000 28.1000,119.492 28.1000,127.500 C28.1000,135.508 22.508,141.1000 14.500,141.1000 C6.492,141.1000 0.000,135.508 0.000,127.500 C0.000,119.492 6.492,113.000 14.500,113.000 Z"/>
<path fill-rule="evenodd"  fill="rgb(0, 0, 0)"
 d="M99.500,113.000 C107.508,113.000 113.1000,119.492 113.1000,127.500 C113.1000,135.508 107.508,141.1000 99.500,141.1000 C91.492,141.1000 85.000,135.508 85.000,127.500 C85.000,119.492 91.492,113.000 99.500,113.000 Z"/>
<path fill-rule="evenodd"  fill="rgb(0, 0, 0)"
 d="M99.500,0.000 C107.508,0.000 113.1000,6.492 113.1000,14.500 C113.1000,22.508 107.508,28.1000 99.500,28.1000 C91.492,28.1000 85.000,22.508 85.000,14.500 C85.000,6.492 91.492,0.000 99.500,0.000 Z"/>
<path fill-rule="evenodd"  fill="rgb(0, 0, 0)"
 d="M99.500,56.000 C107.508,56.000 113.1000,62.492 113.1000,70.500 C113.1000,78.508 107.508,84.1000 99.500,84.1000 C91.492,84.1000 85.000,78.508 85.000,70.500 C85.000,62.492 91.492,56.000 99.500,56.000 Z"/>
<path fill-rule="evenodd"  fill="rgb(0, 0, 0)"
 d="M14.500,56.000 C22.508,56.000 28.1000,62.492 28.1000,70.500 C28.1000,78.508 22.508,84.1000 14.500,84.1000 C6.492,84.1000 0.000,78.508 0.000,70.500 C0.000,62.492 6.492,56.000 14.500,56.000 Z"/>
</svg>